<svg xmlns="http://www.w3.org/2000/svg" width="88.365" height="68.206" viewBox="0 0 88.364608 68.20582">
<path d="M19.268 68.033c-1.152-.301-1.779-.74-2.556-1.672-3.052-3.663-5.235 5.316-8.039.257-2.891-5.212-6.936.753-8.369-2.315-1.399-2.987 2.44-4.608 3.256-7.801.684-2.68-.947-7.029.908-7.029 7.296 0 4.988-7.073 9.435-6.049 6.049 1.396 4.996-3.981 8.299-2.664 7.357 2.933 5.269-4.645 10.9-.839s8.884.384 10.785 4.531c.359.781.657 2.107.657 2.107-20.975 1.965-32.4 10.616-32.4 10.616s20.36-9.632 37.364-9.26c.996-1.035 1.508-3.712.916-6.005-.316-1.225-.916-2.583-1.452-2.901 0 0-3.155 3.501-5.459 2.835-1.351-.392-1.46-1.788-2.764-2.319-1.395-.568-2.779.856-3.859-.196-.681-.663-.407-1.448-.881-2.269-1.353-2.343-4.364-1.565-5.739-3.895-.956-1.62.881-3.859-1.108-4.693-1.224-.512-4.679-.843-4.205-2.743.263-1.051 1.837-.872 1.988-1.945.168-1.205-.789-1.901-1.797-2.551-6.332-4.079-1.573-4.832-1.607-8.027-.033-3.084-3.695-5.183 1.337-7.799 1.727-.897-.887-3.947.765-5.084C27.325-.832 28.69 1.48 30.73 1.553c1.621.056 1.525-2.96 4.128-.519 1.463 1.372 4.727-2.019 5.051 0 .964 6.003 4.141 3.168 5.391 6.084.877 2.044-.356 3.873 1.036 5.608 1.397 1.743 5.583.693 5.275 2.227-.924 4.601 5.191 8.576 1.964 11.544-1.789 1.643 1.579 4.069.869 6.545-.621 2.161-3.427 4.641-3.427 4.641-8.909-10.752-14.933-22.135-14.933-22.135s.751 6.06 15.719 25.888c.307.315 3.327-3.66 4.475-6.525.701-1.751.108-3.14 1.184-4.689 1.068-1.54 2.811-1.251 3.943-2.743 1.268-1.671-.125-3.909 1.571-5.141 1.6-1.164 3.136.287 5.069-.127 2.803-.601 3.855-4.476 6.512-3.405 1.012.409 1.163 1.359 2.18 1.752 2.124.82 4.84-3.988 5.547-1.824.273.84-.424 1.407-.189 2.26.604 2.193 4.171-.452 5.704 1.228 2.012 2.204-2.06 2.32-.941 7.592.232 1.092-2.145 1.521-2.928 1.879-4.009 1.832-2.105 5.093-2.793 5.168-5.256.565-1.464 2.353-2.601 3.701-2.253 2.665-5.459-.135-6.883 5.721-.904 3.712-6.533-1.612-9.447.039-1.267.717-3.229-.28-3.519-3.22-.107-1.093-1.376-1.031-2.332-1.431 5.012-5.788 14.992-11.012 14.992-11.012s-10.063 2.567-16.74 11.355c-4.977 6.548-6.167 17.111-6.971 20.133l-1.731-1.104c.619-2.057 1.444-4.972 2.535-9.872.463-2.075-2.015-1.725-3.596-1.987 1.143 2.857.119 5.896-2.523 7.476-1.444.861-2.728.029-4.245.755-2.331 1.113-2.1 3.671-4.284 5.052-2.853 1.807-5.44.075-8.544 1.407-2.611 1.12-3.229 4.875-5.979 4.159" fill="#ce0f3e"/>
</svg>